<svg width="31" height="31" viewBox="0 0 31 31" fill="none" xmlns="http://www.w3.org/2000/svg">
<g id="Group 5">
<circle id="Ellipse 3" cx="15.5" cy="15.5" r="15.5" fill="#E7E7E7"/>
<path id="Vector" d="M13.0172 8.34616C13.0042 8.34616 12.9912 8.347 12.9782 8.34788C12.8681 8.35668 10.2568 8.58479 8.58327 9.95118C7.7092 10.7712 5.96155 15.5644 5.96155 19.7085C5.96155 19.7815 5.98019 19.8522 6.01574 19.9164C7.22193 22.0658 10.5117 22.6292 11.2609 22.6539H11.2744C11.4071 22.6539 11.5317 22.5894 11.6098 22.4803L12.3685 21.4235C10.3229 20.8868 9.27821 19.9752 9.21838 19.9215C9.04668 19.7676 9.02937 19.5029 9.18112 19.3287C9.26263 19.2345 9.37659 19.1861 9.49105 19.1861C9.58817 19.1861 9.68651 19.2205 9.76542 19.2909C9.79056 19.3138 11.7141 20.9698 15.4983 20.9698C19.2894 20.9698 21.2138 19.3059 21.2329 19.2892C21.3118 19.2196 21.4102 19.1861 21.5073 19.1861C21.6217 19.1861 21.7348 19.2337 21.8172 19.3287C21.9681 19.5029 21.9525 19.7684 21.7816 19.9215C21.7209 19.9761 20.6754 20.885 18.6298 21.4217L19.3886 22.4803C19.4666 22.5894 19.5912 22.6539 19.7239 22.6539H19.7374C20.4875 22.6301 23.7781 22.0667 24.9843 19.9164C25.0198 19.853 25.0385 19.7815 25.0385 19.7085C25.0385 15.5644 23.2905 10.7708 22.3947 9.93228C20.7437 8.58524 18.1328 8.35756 18.0218 8.34788C18.0105 8.347 17.9975 8.34616 17.9862 8.34616C17.825 8.34616 17.677 8.44316 17.6103 8.59362C17.6051 8.60417 17.5482 8.73741 17.4849 8.94418C18.5767 9.1307 19.9173 9.50795 21.1313 10.2725C21.3255 10.3948 21.3856 10.6537 21.2651 10.8516C21.187 10.9801 21.0516 11.051 20.9128 11.051C20.8382 11.051 20.7628 11.0305 20.6943 10.9874C18.608 9.67556 16.0012 9.60921 15.5 9.60921C14.9988 9.60921 12.392 9.67639 10.3074 10.9891C10.2389 11.0313 10.1635 11.051 10.0889 11.051C9.95016 11.051 9.81384 10.9818 9.73493 10.8534C9.61353 10.6554 9.67449 10.3957 9.86873 10.2725C11.0827 9.50883 12.4242 9.13242 13.5168 8.94589C13.4526 8.73825 13.3941 8.60589 13.3898 8.59533C13.323 8.44488 13.1776 8.34616 13.0172 8.34616ZM15.5 11.3689C15.7567 11.3689 18.0586 11.4002 19.7781 12.4824C20.1189 12.6971 20.5096 12.8124 20.9111 12.8124C21.2519 12.8124 21.5792 12.7334 21.8714 12.5855C22.4064 13.9519 23.0361 16.1038 23.2382 18.3148C23.2035 18.2655 23.1663 18.2179 23.1264 18.1722C22.7188 17.6979 22.129 17.4281 21.509 17.4281C20.9913 17.4281 20.4896 17.6164 20.1219 17.9402C20.0586 17.9921 18.5393 19.2118 15.5 19.2118C12.4616 19.2118 10.9433 17.9941 10.9103 17.9677C10.5175 17.6184 10.0148 17.4264 9.49274 17.4264C8.87621 17.4264 8.2888 17.6947 7.88211 18.1619C7.83962 18.2103 7.80002 18.2612 7.76186 18.3131C7.96391 16.1038 8.59281 13.9476 9.12523 12.5821C9.41832 12.7308 9.74725 12.8107 10.0889 12.8107C10.4895 12.8107 10.8803 12.6971 11.2202 12.4824C12.9415 11.3994 15.2433 11.3689 15.5 11.3689ZM12.8038 13.7799C12.0025 13.7799 11.3523 14.5331 11.3523 15.4622C11.3523 16.3913 12.0017 17.1446 12.8038 17.1446C13.6059 17.1446 14.2552 16.3913 14.2552 15.4622C14.2552 14.5322 13.6059 13.7799 12.8038 13.7799ZM18.1963 13.7799C17.395 13.7799 16.7448 14.5331 16.7448 15.4622C16.7448 16.3913 17.3942 17.1446 18.1963 17.1446C18.9983 17.1446 19.6477 16.3913 19.6477 15.4622C19.6477 14.5322 18.9975 13.7799 18.1963 13.7799Z" fill="black"/>
</g>
</svg>
