<svg width="31" height="31" viewBox="0 0 31 31" fill="none" xmlns="http://www.w3.org/2000/svg">
<g id="Group 6">
<circle id="Ellipse 2" cx="15.5" cy="15.5" r="15.5" fill="#E7E7E7"/>
<path id="Vector" d="M20.4405 8.35393C20.2027 8.32824 19.9441 8.36606 19.6844 8.47063C19.3624 8.5996 14.3169 10.761 9.61358 12.7772L8.05949 13.4433C7.45771 13.6917 7.15387 14.0959 7.15387 14.6402C7.15387 15.0213 7.31225 15.5382 8.06787 15.8428L10.6911 16.913C10.9179 17.606 11.4448 19.215 11.5772 19.6427C11.6559 19.8963 11.8547 20.5351 12.357 20.6845C12.46 20.7202 12.5676 20.7386 12.677 20.7386C12.994 20.7386 13.2223 20.5883 13.3339 20.5009L15.0012 19.0649L17.0262 20.972C17.1042 21.0528 17.5171 21.4615 18.0716 21.4615C18.7636 21.4615 19.2884 20.875 19.3979 20.3073C19.4573 19.9962 21.4104 10.0134 21.4104 10.0134C21.5857 9.21256 21.2705 8.79713 21.068 8.62006C20.8945 8.46886 20.6783 8.37961 20.4405 8.35393ZM19.9667 9.92798C19.6969 11.3052 18.2264 18.8225 18.0031 19.906L15.0431 17.118L13.0348 18.85L13.591 16.6341C13.591 16.6341 17.4282 12.6787 17.6593 12.4485C17.8454 12.2641 17.8843 12.1995 17.8843 12.1354C17.8843 12.0501 17.8413 11.9888 17.7418 11.9888C17.6524 11.9888 17.5309 12.076 17.4665 12.1169C16.6484 12.6363 13.1646 14.6573 11.45 15.6506L8.96231 14.6388L10.1698 14.1221C13.246 12.8032 18.7245 10.4541 19.9667 9.92798Z" fill="black"/>
</g>
</svg>
